<?xml version="1.0" encoding="UTF-8"?>
<svg xmlns="http://www.w3.org/2000/svg" viewBox="0 0 200 232" width="400" height="464">
  <!-- Black border + dark background -->
  <path d="
    M 87,13.5
    Q 100,6 113,13.5
    L 182.3,53.5
    Q 195.3,61 195.3,76
    L 195.3,156
    Q 195.3,171 182.3,178.5
    L 113,218.5
    Q 100,226 87,218.5
    L 17.7,178.5
    Q 4.7,171 4.7,156
    L 4.7,76
    Q 4.7,61 17.7,53.5
    Z
  " fill="#1a0a2e" stroke="#000000" stroke-width="5" stroke-linejoin="round"/>

  <!-- Crystal Ball icon, scaled and centered -->
  <!-- Original is 64x64, scale to ~120px: 120/64 = 1.875 -->
  <g transform="translate(40, 19) scale(1.875)">
    <!-- Gold base -->
    <path d="M47.47,50.49c-.04-.16-.1-.31-.15-.46h.04l-1.17-4.2h-5.95c-1.66,6.09-5.44,11.03-10.29,13.59.67.04,1.35.07,2.05.07,9.68,0,16.55-4.31,15.47-9.01Z" fill="#fdaf18"/>
    <path d="M40.24,45.83h-22.44l-1.17,4.2h.04c-.05.15-.11.31-.15.46-1,4.35,4.84,8.37,13.42,8.93,4.86-2.56,8.63-7.5,10.29-13.59Z" fill="#fec92b"/>
    <!-- Main orb -->
    <circle cx="32" cy="28.33" r="23.83" fill="#a0f"/>
    <!-- Light area -->
    <path d="M31.84,4.5c-13.03.09-23.58,10.63-23.67,23.67,2.44,7.54,9.52,13,17.87,13,10.38,0,18.79-8.41,18.79-18.79,0-8.35-5.46-15.43-13-17.87Z" fill="#d769ff"/>
    <!-- Large sparkle -->
    <path d="M44.11,34.6l-4.63-1.83-1.83-4.63c-.38-.97-1.75-.97-2.13,0l-1.83,4.63-4.63,1.83c-.97.38-.97,1.75,0,2.13l4.63,1.83,1.83,4.63c.38.97,1.75.97,2.13,0l1.83-4.63,4.63-1.83c.97-.38.97-1.75,0-2.13Z" fill="#ffffff"/>
    <!-- Small sparkle -->
    <path d="M22.85,21.04l-2.6-1.02s-.08-.05-.1-.1l-1.02-2.6c-.31-.79-1.44-.79-1.75,0l-1.02,2.6s-.05.08-.1.1l-2.6,1.02c-.79.31-.79,1.44,0,1.75l2.6,1.02s.08.05.1.1l1.02,2.6c.31.79,1.44.79,1.75,0l1.02-2.6s.05-.08.1-.1l2.6-1.02c.79-.31.79-1.44,0-1.75Z" fill="#f2a6ff"/>
    <!-- Dots -->
    <circle cx="25.58" cy="13.67" r="2.75" fill="#ffffff"/>
    <circle cx="48.5" cy="29.25" r="2.75" fill="#f2a6ff"/>
    <circle cx="19.17" cy="39.33" r="2.75" fill="#f2a6ff"/>
  </g>

  <!-- Package name -->
  <text x="100" y="175" text-anchor="middle" font-family="'SF Mono', 'Menlo', 'Courier New', monospace" font-weight="bold" font-size="24" fill="#ffffff" letter-spacing="2">semcache</text>
</svg>
