<svg xmlns="http://www.w3.org/2000/svg" width="100" height="115.47" viewBox="0 0 100 115.47">
  <path d="M50,0 L93.3,25 L93.3,75 L50,100 L6.7,75 L6.7,25 Z" fill="#d32f2f" stroke="white" stroke-width="3"/>
  <g fill="white">
    <path d="M50,20 C65,20 78,24 78,30 C78,36 65,40 50,40 C35,40 22,36 22,30 C22,24 35,20 50,20 Z"/>
    <path d="M22,45 C22,51 35,55 50,55 C65,55 78,51 78,45 L78,55 C78,61 65,65 50,65 C35,65 22,61 22,55 Z"/>
    <path d="M22,70 C22,76 35,80 50,80 C65,80 78,76 78,70 L78,80 C78,86 65,90 50,90 C35,90 22,86 22,80 Z"/>
    <path d="M20,15 Q35,5 50,15 Q65,25 80,15" fill="none" stroke="white" stroke-width="3"/>
    <circle cx="80" cy="80" r="15" fill="#d32f2f" stroke="white" stroke-width="3"/>
    <path d="M72,80 L78,86 L88,74" fill="none" stroke="white" stroke-width="4" stroke-linecap="round" stroke-linejoin="round"/>
  </g>
</svg>
